<?xml version="1.0" standalone="no"?>
<!DOCTYPE svg PUBLIC "-//W3C//DTD SVG 20010904//EN"
 "http://www.w3.org/TR/2001/REC-SVG-20010904/DTD/svg10.dtd">
<svg version="1.0" xmlns="http://www.w3.org/2000/svg"
 width="920.000000pt" height="920.000000pt" viewBox="0 0 920.000000 920.000000"
 preserveAspectRatio="xMidYMid meet">

<g transform="translate(0.000000,920.000000) scale(0.100000,-0.100000)"
fill="#000000" stroke="none">
<path d="M3398 7845 l-3 -1164 -205 121 c-113 67 -324 192 -470 278 -146 86
-330 195 -410 242 -80 47 -269 159 -420 248 -151 90 -313 186 -360 213 -47 27
-99 58 -116 68 l-30 18 -36 -62 c-20 -34 -44 -78 -55 -97 -11 -19 -111 -192
-223 -385 -112 -192 -212 -366 -223 -385 -10 -19 -68 -118 -127 -220 -60 -102
-199 -342 -310 -534 -111 -193 -207 -358 -213 -368 -8 -12 -8 -21 -1 -28 9 -9
201 -124 559 -335 77 -45 250 -147 385 -227 135 -79 272 -160 305 -180 33 -19
193 -114 355 -210 162 -96 319 -189 348 -205 l53 -30 -138 -78 c-76 -43 -313
-178 -528 -300 -214 -122 -595 -338 -845 -480 -250 -142 -467 -265 -481 -274
l-27 -16 152 -261 c83 -143 191 -330 240 -415 49 -84 128 -221 176 -304 49
-82 97 -166 107 -185 39 -68 524 -904 527 -907 2 -2 81 43 177 100 96 57 251
149 344 204 158 93 398 235 1185 700 l305 181 3 -1189 2 -1189 1200 0 1200 0
2 1189 3 1189 255 -152 c141 -83 316 -187 390 -230 212 -125 1101 -651 1239
-733 93 -55 126 -71 133 -61 4 7 72 123 150 258 77 135 187 324 243 420 57 96
113 193 125 215 12 22 61 108 109 190 48 83 137 236 198 340 60 105 154 267
208 360 55 94 113 195 131 226 l31 56 -200 114 c-110 63 -228 129 -261 148
-34 19 -306 174 -606 344 -300 171 -636 362 -748 425 l-203 115 53 30 c29 16
186 109 348 205 162 96 342 203 400 237 130 76 532 314 915 541 191 113 290
177 289 187 -2 16 -99 187 -545 952 -48 83 -96 166 -106 185 -11 19 -110 190
-220 380 -110 190 -223 387 -253 438 -29 51 -57 95 -62 98 -5 3 -50 -18 -101
-47 -102 -58 -385 -221 -632 -364 -88 -51 -263 -152 -390 -225 -126 -74 -297
-172 -380 -220 -82 -48 -215 -124 -295 -170 -80 -46 -170 -98 -200 -117 -31
-18 -59 -33 -63 -33 -4 0 -7 524 -7 1165 l0 1165 -1175 0 -1175 0 -2 -1165z
m2254 -136 c-2 -1111 -1 -1201 14 -1195 9 4 164 91 343 195 485 280 1064 614
1436 829 252 146 333 188 341 179 16 -18 1097 -1888 1093 -1891 -2 -1 -92 -54
-199 -117 -695 -408 -1870 -1105 -1870 -1109 1 -3 231 -135 513 -295 473 -267
1214 -689 1452 -824 55 -32 100 -62 99 -67 -1 -14 -1088 -1893 -1095 -1894 -4
0 -472 275 -1039 610 -568 336 -1034 610 -1036 610 -2 0 -4 -551 -4 -1225 l0
-1225 -1100 0 -1100 0 0 1225 c0 674 -2 1225 -4 1225 -2 0 -468 -275 -1036
-610 -567 -335 -1035 -610 -1039 -610 -8 1 -1095 1882 -1094 1895 0 6 45 35
99 66 239 136 980 558 1451 824 282 160 512 292 513 295 0 4 -1175 701 -1870
1109 -107 63 -197 116 -199 117 -4 3 1077 1873 1093 1891 9 10 249 -128 1036
-593 564 -334 1031 -608 1038 -611 9 -4 12 239 12 1196 l0 1201 1078 0 1077 0
-3 -1201z"/>
<path d="M3595 8808 c-3 -7 -6 -565 -8 -1239 l-2 -1227 -1064 629 c-585 346
-1066 628 -1068 626 -2 -2 -228 -393 -503 -868 -403 -696 -498 -866 -486 -874
7 -5 486 -289 1064 -630 578 -341 1051 -622 1052 -625 0 -3 -474 -274 -1053
-603 -578 -329 -1058 -601 -1065 -606 -10 -6 118 -234 489 -874 276 -477 504
-867 508 -866 3 0 483 282 1066 627 l1060 628 5 -1261 5 -1260 1005 0 1005 0
5 1260 5 1261 1060 -628 c583 -345 1063 -626 1067 -625 5 1 233 391 508 866
370 637 497 866 488 872 -7 5 -487 277 -1065 606 -579 329 -1053 600 -1053
603 0 3 474 284 1052 625 577 341 1057 625 1064 630 12 8 -83 178 -486 874
-275 475 -502 866 -504 868 -1 2 -493 -280 -1092 -626 l-1089 -629 -3 1239 -2
1239 -980 0 c-775 0 -982 -3 -985 -12z m1079 -722 c98 -30 155 -102 162 -205
8 -93 -11 -648 -21 -626 -46 110 -196 185 -366 185 l-77 0 -7 219 c-4 120 -4
233 0 252 19 87 74 148 157 174 57 18 95 18 152 1z m-86 -761 c57 -17 115 -62
138 -106 19 -37 18 -112 -2 -150 -25 -49 -97 -85 -297 -150 -217 -70 -292
-113 -340 -191 -68 -110 -40 -245 96 -472 l77 -128 -2 -256 -3 -255 -74 84
c-237 271 -371 602 -371 921 0 167 49 357 121 470 125 195 425 302 657 233z
m228 -572 c-3 -153 -8 -386 -11 -518 -3 -132 -7 -321 -10 -420 -3 -99 -8 -324
-11 -500 l-7 -320 -28 -40 c-15 -22 -58 -70 -96 -106 -70 -68 -212 -184 -218
-177 -3 3 -14 457 -39 1568 -7 305 -10 558 -6 563 3 4 46 19 96 33 136 39 245
95 291 149 21 24 40 44 42 45 2 0 1 -125 -3 -277z m284 -1253 c54 -80 115
-209 137 -290 13 -48 18 -102 18 -205 0 -127 -3 -147 -28 -220 -67 -191 -180
-320 -422 -479 -183 -121 -245 -168 -310 -235 -88 -90 -152 -219 -171 -339 -4
-23 -10 -41 -14 -40 -21 8 -87 101 -116 163 -48 100 -68 186 -68 290 -1 76 3
97 23 135 36 68 128 153 326 300 274 203 383 326 437 490 19 58 21 95 26 340
l4 275 58 -62 c32 -34 77 -89 100 -123z m-344 -1532 c-3 -106 -8 -312 -11
-458 l-6 -265 -30 -62 c-36 -75 -97 -144 -177 -200 l-60 -42 -6 202 c-3 111
-9 313 -12 449 l-6 246 28 53 c35 65 137 170 219 227 33 22 62 41 64 41 2 1 0
-86 -3 -191z m182 -372 c77 -121 104 -216 103 -361 -1 -265 -150 -522 -384
-660 -203 -120 -267 -230 -291 -495 l-11 -125 -47 90 c-57 111 -78 189 -78
293 0 209 126 408 364 572 43 30 99 79 124 109 56 69 115 193 136 288 14 63
35 260 36 331 0 12 2 22 4 22 2 0 22 -29 44 -64z m-222 -1413 c-14 -715 -15
-727 -48 -833 -17 -52 -43 -128 -59 -168 -16 -40 -29 -75 -29 -77 0 -3 21 -5
47 -5 l47 0 -29 -30 c-35 -36 -45 -37 -82 -6 -53 45 -55 58 -65 648 -10 545
-10 547 11 590 31 65 74 112 144 157 34 23 64 41 66 41 2 0 1 -143 -3 -317z
m191 -532 c37 -129 -13 -302 -114 -390 -49 -44 -69 -52 -58 -23 4 9 21 71 40
137 29 108 40 168 61 343 l6 53 24 -33 c14 -18 32 -57 41 -87z"/>
<path d="M4487 7239 c-41 -16 -32 -48 20 -77 l42 -23 39 20 c55 28 70 48 50
67 -19 19 -114 27 -151 13z"/>
</g>
</svg>
