<?xml version="1.0" standalone="no"?>
<!DOCTYPE svg PUBLIC "-//W3C//DTD SVG 20010904//EN"
 "http://www.w3.org/TR/2001/REC-SVG-20010904/DTD/svg10.dtd">
<svg version="1.0" xmlns="http://www.w3.org/2000/svg"
 width="512.000000pt" height="512.000000pt" viewBox="0 0 512.000000 512.000000"
 preserveAspectRatio="xMidYMid meet">

<g transform="translate(0.000000,512.000000) scale(0.100000,-0.100000)"
fill="#000000" stroke="none">
<path d="M1985 5111 c-130 -21 -237 -71 -328 -152 -58 -51 -139 -164 -158
-218 l-11 -31 -176 0 c-224 -1 -215 5 -222 -133 l-5 -102 -359 -3 c-353 -2
-360 -3 -383 -24 l-23 -21 0 -2188 c0 -2138 0 -2187 19 -2210 l19 -24 1704 0
1704 0 83 50 c598 361 951 984 951 1678 0 104 -3 128 -17 146 -10 11 -224 110
-488 225 l-470 204 -5 1060 c-5 1024 -6 1061 -24 1081 -19 21 -26 21 -383 21
l-363 0 0 95 c0 88 -2 98 -25 120 -24 25 -27 25 -199 25 l-175 0 -32 65 c-75
152 -229 278 -391 319 -76 19 -181 26 -243 17z m200 -165 c149 -39 262 -144
320 -297 15 -38 32 -72 38 -76 7 -5 89 -10 182 -13 l170 -5 0 -220 0 -220
-827 -3 -828 -2 0 225 0 225 169 0 170 0 20 26 c12 15 21 32 21 38 0 6 13 39
30 73 52 112 160 206 278 244 68 22 186 24 257 5z m-1100 -731 l0 -100 -188
-5 c-172 -5 -190 -7 -203 -24 -12 -17 -14 -286 -14 -1847 0 -1784 0 -1827 19
-1850 l19 -24 1265 -5 1265 -5 64 -60 c34 -33 83 -77 108 -97 l45 -37 -1497
-1 -1498 0 0 2080 0 2080 308 -2 307 -3 0 -100z m2573 -901 l-3 -1005 -89 -40
c-48 -21 -92 -39 -97 -39 -5 0 -10 409 -11 919 -3 888 -4 920 -22 940 -18 20
-29 21 -203 21 l-183 0 0 105 0 105 305 0 305 0 -2 -1006z m-358 -257 l0 -903
-296 -129 c-176 -77 -301 -137 -310 -149 -10 -15 -14 -55 -14 -153 0 -407 131
-815 364 -1131 25 -34 46 -64 46 -67 0 -3 -508 -5 -1130 -5 l-1130 0 0 1720 0
1720 1235 0 1235 0 0 -903z m890 -1076 l455 -199 -2 -123 c-8 -455 -232 -942
-571 -1247 -86 -77 -214 -173 -285 -215 l-48 -28 -59 36 c-143 87 -327 248
-440 385 -177 215 -313 499 -369 767 -23 112 -44 316 -39 382 l3 44 450 197
c248 109 450 198 450 199 0 0 205 -89 455 -198z"/>
<path d="M1959 4692 c-141 -73 -162 -265 -41 -374 86 -78 224 -75 310 5 66 61
88 171 52 255 -56 129 -196 179 -321 114z m157 -145 c66 -57 -3 -166 -79 -126
-52 28 -63 84 -22 124 30 31 66 32 101 2z"/>
<path d="M1965 3754 c-208 -31 -385 -120 -525 -264 -372 -383 -319 -998 115
-1318 78 -57 150 -93 255 -127 114 -37 317 -46 436 -20 410 89 694 438 694
851 0 240 -76 435 -234 601 -169 178 -366 269 -606 277 -58 3 -118 2 -135 0z
m335 -188 c195 -72 327 -190 415 -371 106 -217 97 -469 -22 -675 -49 -83 -180
-214 -263 -263 -360 -208 -824 -67 -1010 308 -52 106 -73 196 -72 320 1 282
151 518 411 649 100 51 181 66 331 63 118 -3 145 -7 210 -31z"/>
<path d="M1874 3436 c-17 -8 -34 -21 -38 -31 -3 -9 -6 -77 -6 -151 l0 -134
-140 0 c-198 0 -193 6 -188 -258 4 -226 -4 -216 188 -220 l140 -4 0 -132 c0
-120 2 -136 21 -160 l20 -26 190 0 c105 0 199 4 209 10 29 16 40 66 40 191 l0
119 125 0 c131 0 176 11 189 45 3 9 6 100 6 201 0 183 0 185 -25 209 -23 24
-29 25 -159 25 l-134 0 -4 140 c-4 193 7 184 -226 187 -133 2 -185 -1 -208
-11z m276 -280 c0 -119 2 -136 21 -159 20 -26 22 -27 162 -29 l142 -3 3 -82 3
-83 -130 0 c-140 0 -172 -8 -190 -47 -6 -13 -11 -80 -11 -153 l0 -130 -85 0
-85 0 0 139 c0 191 6 185 -179 189 l-141 4 0 84 0 84 140 0 c187 0 180 -7 180
180 l0 140 85 0 85 0 0 -134z"/>
<path d="M1111 1754 c-28 -35 -26 -69 4 -99 21 -22 33 -25 100 -25 67 0 79 3
100 25 30 30 32 64 4 99 -19 24 -26 26 -104 26 -78 0 -85 -2 -104 -26z"/>
<path d="M1572 1757 c-29 -31 -29 -77 1 -105 23 -22 25 -22 468 -22 l446 0 21
23 c29 31 29 77 -1 105 -23 22 -25 22 -468 22 l-446 0 -21 -23z"/>
<path d="M1130 1327 c-55 -28 -48 -115 12 -136 43 -15 112 -14 153 3 39 17 54
53 39 95 -13 35 -48 51 -119 51 -33 0 -71 -6 -85 -13z"/>
<path d="M1590 1327 c-55 -28 -52 -109 5 -133 51 -21 889 -21 940 0 39 17 54
53 39 95 -18 50 -26 51 -509 51 -341 0 -456 -3 -475 -13z"/>
<path d="M1111 864 c-28 -35 -26 -69 4 -99 21 -22 33 -25 100 -25 67 0 79 3
100 25 30 30 32 64 4 99 -19 24 -26 26 -104 26 -78 0 -85 -2 -104 -26z"/>
<path d="M1572 867 c-31 -33 -29 -80 4 -106 26 -21 36 -21 566 -21 l539 0 24
25 c32 31 33 74 2 103 l-23 22 -545 0 -546 0 -21 -23z"/>
<path d="M3642 1899 c-340 -57 -567 -402 -483 -731 57 -224 220 -387 442 -444
87 -22 249 -15 336 16 224 78 384 292 400 530 19 309 -199 579 -507 629 -75
12 -113 12 -188 0z m278 -186 c181 -83 290 -279 260 -470 -30 -193 -179 -342
-375 -376 -234 -40 -470 137 -504 377 -27 192 79 387 254 467 79 36 93 38 205
35 81 -3 105 -8 160 -33z"/>
<path d="M3820 1395 c-118 -69 -218 -125 -221 -125 -3 0 -35 36 -70 81 -34 44
-71 85 -80 90 -50 26 -109 -11 -109 -69 0 -24 21 -57 95 -150 94 -119 109
-132 146 -132 22 0 500 270 537 303 28 26 30 86 4 110 -39 36 -77 22 -302
-108z"/>
</g>
</svg>
